<svg xmlns="http://www.w3.org/2000/svg" viewBox="0 0 1024 1024"><path fill="#f4f8f8" stroke="#f4f8f8" d="M0 512.001v512.001l512.25-.251 512.25-.251.251-511.75.251-511.75H0v512.001m.496.499c0 281.6.114 396.651.254 255.668.14-140.982.14-371.382 0-512C.61 115.551.496 230.9.496 512.5M498.264 48.718c1.52.229 3.77.223 5-.014 1.23-.237-.014-.425-2.764-.418-2.75.008-3.756.202-2.236.432M463.266 62l.544 6h-15.905C432.667 68 432 68.084 432 70c0 1.833-.667 2-8 2s-8 .167-8 2-.667 2-8 2-8 .167-8 2c0 1.822-.667 2-7.5 2H385v-8h-10v3.44c0 3.252-.204 3.456-3.75 3.75l-3.75.31.097 6.25.096 6.25h-3.346c-2.923 0-3.347-.324-3.347-2.555 0-2.424-.243-2.539-4.75-2.25l-4.75.305-.307 4.25c-.298 4.117-.415 4.25-3.75 4.25-2.776 0-3.443.387-3.443 2 0 1.667-.667 2-4 2s-4 .333-4 2c0 1.833-.667 2-8 2s-8 .167-8 2c0 1.333-.667 2-2 2s-2 .667-2 2c0 1.667-.667 2-4 2s-4 .333-4 2c0 1.778-.667 2-6 2-5.464 0-6 .191-6 2.139 0 1.994-.356 2.097-5.25 1.509-2.887-.347-6.23-.635-7.427-.639-1.227-.005-2.376-.772-2.634-1.759-.344-1.317-.486-1.193-.573.5-.107 2.07-.595 2.25-6.116 2.25h-6v12h-16v8h-4c-3.333 0-4 .333-4 2 0 1.333-.667 2-2 2s-2 .667-2 2c0 1.667-.667 2-4 2-3.843 0-4.001.127-4.014 3.25-.026 6.203-.886 7.616-4.838 7.946-3.593.299-3.653.376-3.953 5.054l-.305 4.75h4.555c3.382 0 4.555.386 4.555 1.5 0 1.083-1.111 1.5-4 1.5h-4v4c0 3.905-.083 4-3.5 4-3.087 0-3.5-.302-3.5-2.555 0-2.424-.243-2.539-4.75-2.25l-4.75.305-.307 4.25c-.21 2.894-.768 4.25-1.75 4.25-1.017 0-1.443 1.182-1.443 4 0 2.889-.417 4-1.5 4-1.117 0-1.5-1.181-1.5-4.631v-4.631l-3.75.62c-2.062.341-4.312.625-5 .631-.813.007-1.25 1.584-1.25 4.511 0 4.133.204 4.5 2.5 4.5 4.791 0 3.478 5.588-1.5 6.384-3.891.622-4 .748-4 4.628 0 3.986-.002 3.988-4 3.988h-4v4c0 2.889-.417 4-1.5 4-1.2 0-1.5-1.5-1.5-7.5V201h8l-.136-6.75c-.075-3.713-.331-5.738-.57-4.5-.271 1.407-1.157 2.25-2.364 2.25-1.585 0-1.93.715-1.93 4v4h-4c-3.333 0-4 .333-4 2 0 1.333-.667 2-2 2-1.778 0-2 .667-2 6s-.222 6-2 6c-1.667 0-2 .667-2 4s-.333 4-2 4c-1.333 0-2-.667-2-2s-.667-2-2-2-2 .667-2 2-.667 2-2 2c-1.667 0-2 .667-2 4v4h-8v4c0 3.333-.333 4-2 4s-2 .667-2 4v4h-4c-3.988 0-4 .012-4 3.93 0 3.281-.372 4.003-2.25 4.364-1.238.239-.113.495 2.5.57L137 257v-4c0-3.905.083-4 3.5-4 3.333 0 3.5.167 3.5 3.5 0 2.833-.381 3.5-2 3.5-1.605 0-2 .667-2 3.372 0 3.161-.251 3.412-4 4.012l-4 .64v5.988c0 5.321-.223 5.988-2 5.988-1.333 0-2 .667-2 2s-.667 2-2 2c-1.667 0-2 .667-2 4s-.333 4-2 4-2 .667-2 4-.333 4-2 4-2 .667-2 4-.333 4-2 4-2 .667-2 4v4h-8v8c0 7.333-.167 8-2 8-1.667 0-2 .667-2 4v4h-8v4c0 3.333-.333 4-2 4s-2 .667-2 4-.333 4-2 4c-1.833 0-2 .667-2 8v8h-8v14c0 13.333-.095 14-2 14-1.867 0-2 .667-2 10s-.133 10-2 10c-1.833 0-2 .667-2 8s-.167 8-2 8-2 .667-2 8-.167 8-2 8-2 .667-2 8-.167 8-2 8-2 .667-2 8v8h-8v8c0 7.333.167 8 2 8s2 .667 2 8-.167 8-2 8c-1.917 0-2 .667-2 16s.083 16 2 16c1.833 0 2 .667 2 8s.167 8 2 8c1.939 0 2 .667 2 22s.061 22 2 22c1.867 0 2 .667 2 10v10h8v8c0 7.333.167 8 2 8 1.917 0 2 .667 2 16s.083 16 2 16c1.667 0 2 .667 2 4s.333 4 2 4 2 .667 2 4 .333 4 2 4c1.833 0 2 .667 2 8s.167 8 2 8c1.619 0 2 .667 2 3.5 0 3.417-.095 3.5-4 3.5-3.6 0-4 .25-4 2.5 0 1.833.533 2.5 2 2.5 1.333 0 2 .667 2 2 0 1.467.667 2 2.5 2 2.25 0 2.5-.4 2.5-4 0-2.889.417-4 1.5-4s1.5 1.111 1.5 4c0 3.382.321 4 2.076 4 1.764 0 2.051.565 1.904 3.75-.457 9.871-.064 12.25 2.02 12.25 1.667 0 2 .667 2 4s.333 4 2 4 2 .667 2 4c0 3.99.01 4 3.943 4 3.911 0 3.945.033 4.325 4.25l.383 4.25.174-4.25L113 752h11v4c0 3.333.333 4 2 4 1.833 0 2 .667 2 8v8h8v8h8v4c0 3.333.333 4 2 4s2 .667 2 4 .333 4 2 4c1.333 0 2 .667 2 2s.667 2 2 2 2 .667 2 2c0 1.667.667 2 4 2h4v4c0 3.333.333 4 2 4 1.333 0 2 .667 2 2s.667 2 2 2c1.667 0 2 .667 2 4s.333 4 2 4c1.333 0 2 .667 2 2s.667 2 2 2 2 .667 2 2c0 1.667.667 2 4 2h4v4c0 3.333.333 4 2 4 1.333 0 2 .667 2 2s.667 2 2 2 2 .667 2 2c0 1.667.667 2 4 2s4 .333 4 2 .667 2 4 2h4v8h4c3.333 0 4 .333 4 2 0 1.333.667 2 2 2s2 .667 2 2c0 1.667.667 2 4 2s4 .333 4 2 .667 2 4 2 4 .333 4 2c0 1.333-.667 2-2 2s-2 .667-2 2c0 1.778.667 2 6 2s6 .222 6 2c0 1.667.667 2 4 2h4v8h4c3.333 0 4 .333 4 2s.667 2 4 2 4 .333 4 2 .667 2 4 2h4v8h4c3.333 0 4 .333 4 2s.667 2 4 2 4 .333 4 2c0 1.333.667 2 2 2s2 .667 2 2 .667 2 2 2 2 .667 2 2c0 1.833.667 2 8 2s8 .167 8 2c0 1.889.667 2 12 2s12 .111 12 2c0 1.667.667 2 4 2s4 .333 4 2c0 1.333.667 2 2 2s2 .667 2 2c0 1.778.667 2 6 2s6 .222 6 2c0 1.833.667 2 8 2s8 .167 8 2 .667 2 8 2 8 .167 8 2c0 1.867.667 2 10 2s10 .133 10 2c0 1.905.667 2 14 2s14 .095 14 2 .667 2 14 2c13.086 0 14 .124 14 1.899 0 2.624 4.775 3.204 30.75 3.739l21.25.438V964h24c23.333 0 24-.056 24-2s.667-2 24-2h24v-8h8c7.333 0 8-.167 8-2 0-1.917.667-2 16-2h16v-8h16v-8h8c7.333 0 8-.167 8-2 0-1.822.667-2 7.5-2h7.5v4c0 3.6.25 4 2.5 4 1.833 0 2.5-.533 2.5-2 0-1.333.667-2 2-2 1.667 0 2-.667 2-4v-4h4c3.333 0 4-.333 4-2 0-1.833.667-2 8-2h8v-4c0-3.978.021-4 3.875-4 4.161 0 5.125-1.717 5.125-9.125 0-2.528.362-2.875 3-2.875 2.841 0 3.007.225 3.136 4.25.075 2.337.331 3.237.57 2 .359-1.863 1.087-2.25 4.239-2.25 4.481 0 5.4-2.294 4.377-10.931l-.601-5.069H792v-8h8v-8h8v-4c0-3.905.083-4 3.5-4 3.43 0 3.503.085 3.636 4.25.075 2.337.331 3.237.57 2 .361-1.878 1.083-2.25 4.364-2.25 3.525 0 3.93-.257 3.93-2.5 0-2.25-.4-2.5-4-2.5-2.889 0-4-.417-4-1.5 0-.833.889-1.5 2-1.5 1.667 0 2-.667 2-4v-4h4c3.333 0 4-.333 4-2 0-1.333-.667-2-2-2s-2-.667-2-2c0-1.667.667-2 4-2s4-.333 4-2c0-1.333.667-2 2-2s2-.667 2-2c0-1.667.667-2 4-2s4-.333 4-2c0-1.333.667-2 2-2s2-.667 2-2 .667-2 2-2 2-.667 2-2-.667-2-2-2-2-.667-2-2 .667-2 2-2 2-.667 2-2c0-1.667.667-2 4-2h4v-8h8v-4c0-3.333.333-4 2-4 1.333 0 2-.667 2-2 0-1.667.667-2 4-2h4v-12h8v-4c0-3.333.333-4 2-4 1.778 0 2-.667 2-6s.222-6 2-6c1.333 0 2 .667 2 2s.667 2 2 2c1.667 0 2-.667 2-4v-4h8v-4c0-3.333.333-4 2-4 1.833 0 2-.667 2-8s.167-8 2-8c1.667 0 2-.667 2-4s.333-4 2-4 2-.667 2-4 .333-4 2-4c1.333 0 2-.667 2-2s.667-2 2-2 2-.667 2-2 .667-2 2-2c1.667 0 2-.667 2-4s.333-4 2-4c1.833 0 2-.667 2-8s.167-8 2-8 2-.667 2-8 .167-8 2-8c1.667 0 2-.667 2-4s.333-4 2-4c1.889 0 2-.667 2-12v-12h8v-8c0-6.444.292-8 1.5-8 1.111 0 1.5 1.167 1.5 4.5 0 4.133.204 4.5 2.5 4.5s2.5-.367 2.5-4.5c0-3.833.296-4.5 2-4.5 1.833 0 2-.667 2-8s.167-8 2-8c1.704 0 2-.667 2-4.5 0-4.133-.204-4.5-2.5-4.5-2.25 0-2.5.4-2.5 4 0 2.889-.417 4-1.5 4-1.269 0-1.5-2.389-1.5-15.5 0-14.833.086-15.5 2-15.5 1.917 0 2-.667 2-16s.083-16 2-16c1.822 0 2-.667 2-7.5V529h12v-32.5c0-31.833-.041-32.5-2-32.5-1.833 0-2-.667-2-8 0-7.867-.042-8-2.5-8-2.19 0-2.5.433-2.5 3.5 0 3.333-.167 3.5-3.5 3.5s-3.5-.167-3.5-3.5c0-2.833-.381-3.5-2-3.5s-2-.667-2-3.5c0-3.067.31-3.5 2.5-3.5 2.25 0 2.5-.4 2.5-4 0-2.889.417-4 1.5-4 1.133 0 1.5-1.222 1.5-5 0-4.667-.167-5-2.5-5-2.25 0-2.5.4-2.5 4 0 2.889-.417 4-1.5 4-1.19 0-1.5-1.444-1.5-7v-7l4.25-.136c2.337-.075 3.237-.331 2-.57-2.108-.406-2.25-.934-2.25-8.364 0-7.263-.168-7.93-2-7.93-1.833 0-2-.667-2-8s-.167-8-2-8c-1.667 0-2-.667-2-4s-.333-4-2-4-2-.667-2-4v-4h-8v-16l-3.25-.014c-5.988-.025-7.75-.957-7.75-4.103 0-1.896.513-2.883 1.5-2.883 1.111 0 1.5-1.167 1.5-4.5 0-3.833-.296-4.5-2-4.5-1.667 0-2-.667-2-4s-.333-4-2-4-2-.667-2-4-.333-4-2-4c-1.833 0-2-.667-2-8v-8h-8v-4c0-3.333-.333-4-2-4-1.833 0-2-.667-2-8v-8h-12v-16h-9v4c0 3.778-.167 4-3 4-2.992 0-3-.016-3-5.853 0-11.772-1.104-18.147-3.142-18.147-1.501 0-1.858-.769-1.858-4 0-3.333-.333-4-2-4s-2-.667-2-4-.333-4-2-4c-1.659 0-2-.667-2-3.915v-3.914l-6.502-.336c-6.176-.318-6.502-.222-6.5 1.915.001 1.334-.608 2.25-1.498 2.25-.825 0-1.5-.848-1.5-1.883 0-1.043-.893-2.117-2-2.407-1.446-.378-2-1.364-2-3.559 0-2.845.267-3.06 4.25-3.419l4.25-.383-4.193-.174c-4.172-.174-4.194-.195-4.575-4.425l-.383-4.25-.174 4.25c-.171 4.157-.251 4.25-3.675 4.25-3.417 0-3.5-.095-3.5-4s-.083-4-3.5-4c-3.481 0-3.5-.024-3.5-4.5 0-4.133-.204-4.5-2.5-4.5-2.19 0-2.5-.433-2.5-3.5V192h-12v-8h-4c-3.333 0-4-.333-4-2s-.667-2-4-2c-2.889 0-4-.417-4-1.5 0-1.111 1.167-1.5 4.5-1.5h4.5v-10h-5c-4.667 0-5 .167-5 2.5 0 1.556-.567 2.5-1.5 2.5-1.083 0-1.5-1.111-1.5-4v-4h-12v-8h-4c-3.333 0-4-.333-4-2s-.667-2-4-2-4-.333-4-2-.667-2-4-2c-2.889 0-4-.417-4-1.5 0-1.111 1.167-1.5 4.5-1.5h4.5v-3.927c0-2.898.458-4.046 1.75-4.384 1.317-.344 1.193-.486-.5-.573-1.594-.082-2.284-.772-2.366-2.366-.087-1.693-.229-1.817-.573-.5-.338 1.292-1.486 1.75-4.384 1.75-3.522 0-3.927.258-3.927 2.5 0 2.19-.433 2.5-3.5 2.5-3.417 0-3.5-.095-3.5-4v-4h-4c-2.889 0-4-.417-4-1.5 0-1.201 1.644-1.527 8.25-1.636 4.538-.075 7.237-.331 6-.57-1.407-.271-2.25-1.157-2.25-2.364 0-1.585-.715-1.93-4-1.93h-4v-8h-4c-3.333 0-4-.333-4-2 0-1.778-.667-2-6-2s-6-.222-6-2c0-1.667-.667-2-4-2s-4-.333-4-2c0-1.833-.667-2-8-2s-8-.167-8-2c0-1.667-.667-2-4-2h-4v-8h-4c-3.333 0-4-.333-4-2 0-1.833-.667-2-8-2s-8-.167-8-2c0-1.667-.667-2-4-2s-4-.333-4-2-.667-2-4-2-4-.333-4-2-.667-2-4-2-4-.333-4-2c0-1.832-.667-2-7.93-2-7.43 0-7.958-.142-8.364-2.25-.372-1.929-.453-1.858-.57.5-.127 2.564.134 2.75 3.864 2.75h4v8h4c2.889 0 4 .417 4 1.5 0 1.2-1.5 1.5-7.5 1.5-6.833 0-7.5-.178-7.5-2 0-1.667-.667-2-4-2s-4-.333-4-2c0-1.333-.667-2-2-2-1.111 0-2-.667-2-1.5 0-.933.944-1.5 2.5-1.5 2.656 0 2.898-.758 1.875-5.875-.586-2.929-.9-3.125-5-3.125H623v8h-13.5c-12.833 0-13.5-.099-13.5-2s-.667-2-13.5-2H569v-2.5c0-2.333-.333-2.5-5-2.5s-5 .167-5 2.5c0 2.444-.167 2.5-7.5 2.5-6.833 0-7.5-.178-7.5-2 0-1.833-.667-2-8-2s-8-.167-8-2-.667-2-8-2-8 .167-8 2-.667 2-8 2-8-.167-8-2-.667-2-8-2-8 .167-8 2c0 1.619-.667 2-3.5 2-3.417 0-3.5-.095-3.5-4v-4h-10.278l.544 6m129.984 2.716c1.513.229 3.987.229 5.5 0s.275-.416-2.75-.416-4.263.187-2.75.416M377 82.5c0 1.048 1.056 1.5 3.5 1.5s3.5-.452 3.5-1.5-1.056-1.5-3.5-1.5-3.5.452-3.5 1.5m315 16c0 .825.675 1.5 1.5 1.5s1.5-.675 1.5-1.5-.675-1.5-1.5-1.5-1.5.675-1.5 1.5m12 8c0 1.048 1.056 1.5 3.5 1.5s3.5-.452 3.5-1.5-1.056-1.5-3.5-1.5-3.5.452-3.5 1.5m-416 4c0 2.296.367 2.5 4.5 2.5s4.5-.204 4.5-2.5-.367-2.5-4.5-2.5-4.5.204-4.5 2.5m-15 16v5.5h3.617c3.262 0 3.557-.22 3.013-2.25-.331-1.238-.609-3.713-.616-5.5-.013-2.941-.299-3.25-3.014-3.25-2.97 0-3 .056-3 5.5m471-4c0 .833.889 1.5 2 1.5 1.333 0 2 .667 2 2 0 1.111.667 2 1.5 2 1.048 0 1.5-1.056 1.5-3.5 0-3.333-.167-3.5-3.5-3.5-2.444 0-3.5.452-3.5 1.5m-479 16c0 .825.675 1.5 1.5 1.5s1.5-.675 1.5-1.5-.675-1.5-1.5-1.5-1.5.675-1.5 1.5m-24 9.5c0 2.667.333 3 3 3s3-.333 3-3-.333-3-3-3-3 .333-3 3m16-1.5c0 .825.675 1.5 1.5 1.5s1.5-.675 1.5-1.5-.675-1.5-1.5-1.5-1.5.675-1.5 1.5m-41 17.443c0 3.911-.033 3.945-4.25 4.325l-4.25.383 4.75.174L217 169v-4.5c0-2.475-.225-4.5-.5-4.5s-.5 1.774-.5 3.943m17-1.443c0 1.048 1.056 1.5 3.5 1.5s3.5-.452 3.5-1.5-1.056-1.5-3.5-1.5-3.5.452-3.5 1.5m590 12c0 2.25.4 2.5 4 2.5h4v8h8v4c0 3.73.186 3.991 2.75 3.864 2.358-.117 2.429-.198.5-.57-1.878-.361-2.25-1.083-2.25-4.364 0-3.263-.339-3.93-2-3.93-1.333 0-2-.667-2-2s-.667-2-2-2-2-.667-2-2-.667-2-2-2-2-.667-2-2c0-1.467-.667-2-2.5-2-2 0-2.5.5-2.5 2.5m-292.203 9.25c-.832.963-6.366 9.85-12.299 19.75-5.932 9.9-17.615 29.025-25.962 42.5-16.529 26.684-19.542 31.578-34.161 55.5-5.378 8.8-10.25 16.531-10.827 17.181-.576.65-2.587 3.912-4.467 7.25-1.88 3.338-3.68 6.065-4 6.059-.689-.011-10.547-15.606-18.326-28.99-21.2-36.473-18.661-34.903-28.784-17.803-4.005 6.767-13.287 22.291-20.627 34.499C363.659 332.48 358 342.957 358 344.402c0 2.481 2.215 6.704 9.339 17.8 2.014 3.136 3.661 6.136 3.661 6.667 0 .53.394 1.114.876 1.298.482.183 2.619 3.142 4.75 6.574a8500.293 8500.293 0 0 0 14.874 23.766c6.05 9.639 12.465 19.88 14.255 22.759 9.979 16.043 11.963 19.268 14.192 23.065 1.346 2.293 3.718 5.45 5.271 7.016l2.823 2.848 3.729-3.876c2.052-2.132 5.53-6.936 7.73-10.676s4.45-7.327 5-7.971c.55-.645 1.634-2.402 2.41-3.905.775-1.503 2.247-3.632 3.271-4.731 1.023-1.098 1.761-2.118 1.638-2.267-.122-.148 3.253-5.531 7.5-11.963 8.22-12.448 13.032-17.286 18.681-18.783 3.685-.976 53-1.476 53-.538 0 .3-1.639 3.014-3.642 6.03L523.717 403h-19.398c-27.467 0-24.854-1.835-45.921 32.263-15.478 25.054-20.51 31.516-25.298 32.489-6.771 1.376-8.785 1.218-12.594-.992-4.338-2.516-4.061-2.101-44.164-66.26l-25.163-40.257c-7.771-12.431-9.659-12.683-15.796-2.112-9.671 16.656-60.831 101.375-64.084 106.119-2.363 3.447-2.955 3.75-7.326 3.75h-4.754l-5.932-8.75c-3.262-4.812-7.016-10.55-8.343-12.75l-2.411-4 2.569 2c16.393 12.759 18.801 13.688 23.443 9.045 3.786-3.785 3.264-5.013-9.777-23.045C251.222 420.066 241 404.962 241 404.244c0-.38 3.038 2.285 6.75 5.92 9.411 9.217 13.841 10.912 19.027 7.279 3.207-2.246 2.793-6.123-1.304-12.206-1.939-2.881-3.292-5.237-3.006-5.237.286 0-.404-1.062-1.532-2.36-2.195-2.524-18.176-27.316-20.549-31.877-6.433-12.367-15.228-12.905-20.837-1.274-.799 1.656-3.024 5.486-4.945 8.511-11.15 17.557-13.105 20.593-13.843 21.5-.447.55-2.253 3.25-4.013 6-1.76 2.75-3.772 5.594-4.472 6.32-5.817 6.033-.443 14.745 7.607 12.333 1.989-.596 3.966-1.09 4.393-1.097.426-.007 3.002-2.689 5.723-5.96 13.066-15.7 7.958-7.227-15.013 24.904-2.556 3.575-5.621 7.917-6.812 9.649l-2.166 3.148 2.796 2.994c4.406 4.716 8.914 3.678 19.446-4.473 3.162-2.448 5.75-4.23 5.75-3.961 0 1.783-11.172 18.732-14.154 21.474-12.154 11.175-12.025 11.023-11.345 13.381 1.673 5.797 4.455 6.788 19.055 6.788H221v11.892l-15.119.017c-16.485.019-19.029.72-20.951 5.775-1.193 3.138-.465 5.74 2.337 8.35 1.921 1.789 3.587 1.966 18.55 1.966h16.441l-.747 5.25c-.41 2.888-.768 5.813-.795 6.5-.038.962-5.324 1.25-22.96 1.25h-22.91l-3.04 3.04c-2.544 2.544-2.939 3.564-2.42 6.25 1.252 6.483 2.205 6.71 28.225 6.71H221v13h-27.5c-26.167 0-27.597.097-29.5 2-1.1 1.1-2.051 2.562-2.114 3.25-.063.688-.26 2.477-.438 3.976-.235 1.976.383 3.283 2.249 4.75 2.572 2.023 2.716 2.024 349.504 2.024 227.585 0 347.568-.341 348.785-.992 4.662-2.496 4.292-12.536-.531-14.387-.89-.341-13.507-.621-28.037-.621H807v-13h23.5c12.925 0 23.754.023 24.066.052.311.028 1.436-1.056 2.5-2.408 2.665-3.388 2.458-7.787-.518-10.998L854.095 527H807v-13h15.045c17.072 0 19.955-1.169 19.955-8.09 0-7.34-3.296-8.27-29.752-8.387l-5.252-.023.002-6 .001-6 13.17.161c14.435.176 16.924-.347 19.362-4.067 2.687-4.102-.305-9.226-7.094-12.147-2.585-1.112-13.13-15.223-18.917-25.316-.432-.754 2.537 1.169 6.597 4.272 9.465 7.234 13.899 8.719 17.668 5.917 4.667-3.468 4.126-6.465-2.773-15.384-3.536-4.571-5.831-8.42-5.419-9.087.404-.653.282-.89-.279-.543-1.002.619-5.314-4.398-5.314-6.182 0-.527-.361-1.107-.803-1.291-.442-.183-3.66-4.383-7.153-9.333l-6.35-9 7.702 7.293c10.161 9.623 13.806 10.867 18.854 6.434 3.196-2.807 1.962-6.177-7.732-21.115-5.215-8.037-12.977-20.212-17.25-27.056-10.173-16.296-14.472-17.812-20.961-7.391-1.656 2.659-6.716 10.8-11.245 18.091-4.846 7.802-8.673 12.984-9.302 12.595-.595-.367-.78-.193-.418.393.357.579-1.843 5.024-4.891 9.878-6.368 10.144-6.658 12.787-1.717 15.662 4.58 2.665 8.773 1.032 17.036-6.635l6.626-6.149-7.903 11.5c-4.347 6.325-9.12 13.199-10.608 15.275l-2.704 3.776-4.742-7.776c-2.608-4.276-4.748-8.312-4.757-8.969-.008-.657-.356-1.107-.773-1-1.057.271-34.885-54.224-70.026-112.806-16.663-27.779-16.34-27.556-23.03-15.902-6.057 10.551-30.224 50.364-30.44 50.147-.268-.27-28.956-47.676-53.402-88.245-8.617-14.3-20.994-35-27.506-46C537.42 183.395 536.44 182 534 182c-.93 0-2.371.787-3.203 1.75m5.986 77.023-.283 34.273 3.979 4.727c2.189 2.6 10.514 11.856 18.5 20.569 7.987 8.713 18.121 19.898 22.521 24.855l8 9.013.271-20.153.271-20.154-7.446-12.201c-4.095-6.711-7.963-12.078-8.595-11.927-.632.151-.867-.183-.521-.743.346-.559-6.443-12.608-15.087-26.774-8.644-14.167-16.978-28.008-18.521-30.758l-2.806-5-.283 34.273m194.695-32.683c-23.889 3.027-39.679 30.034-31.515 53.901C715.025 326.021 778 315.833 778 269.366c0-26.958-19.935-44.645-46.522-41.276M868 236c0 2 .5 3 1.5 3s1.5-1 1.5-3-.5-3-1.5-3-1.5 1-1.5 3m-723 8.5c0 2.444.452 3.5 1.5 3.5s1.5-1.056 1.5-3.5-.452-3.5-1.5-3.5-1.5 1.056-1.5 3.5m731 0c0 2.444.452 3.5 1.5 3.5s1.5-1.056 1.5-3.5-.452-3.5-1.5-3.5-1.5 1.056-1.5 3.5m-748 22.93c0 3.8-.32 4.493-2.25 4.864-1.929.372-1.858.453.5.57 2.651.131 2.75-.043 2.75-4.864 0-2.75-.225-5-.5-5s-.5 1.994-.5 4.43m780 23.07c0 .825.675 1.5 1.5 1.5s1.5-.675 1.5-1.5-.675-1.5-1.5-1.5-1.5.675-1.5 1.5m8 17.5c0 2 .5 3 1.5 3s1.5-1 1.5-3-.5-3-1.5-3-1.5 1-1.5 3m-514.49 21.25.28 13.25 10.355 5.223c5.695 2.873 10.672 5.235 11.059 5.25.388.015-1.467-3.685-4.12-8.223-8.037-13.74-17.19-28.75-17.532-28.75-.177 0-.196 5.962-.042 13.25M924 324c0 2 .5 3 1.5 3s1.5-1 1.5-3-.5-3-1.5-3-1.5 1-1.5 3m-252.498 10.182c.131 3.475.307 10.818.393 16.318l.155 10 6.225 4.646c3.424 2.555 10.05 6.96 14.725 9.789 4.675 2.829 9.577 5.899 10.893 6.821 1.821 1.277 1.122-.343-2.931-6.789-2.928-4.657-10.46-16.792-16.737-26.967-13.828-22.416-13.013-21.531-12.723-13.818M953 388.5V400h6v-23h-6v11.5M553.662 397l4.659 6h18.872c26.025 0 24.398-.985 41.304 25 13.326 20.482 21.616 32.711 24.593 36.278l2.689 3.222 14.156.347c16.301.399 18.432.049 20.694-3.404 4.155-6.342-1.856-9.428-18.379-9.437L652 455l-19.114-28.723c-20.227-30.396-20.166-30.32-26.386-33.31-3.636-1.748-6.436-1.925-30.749-1.945L549.002 391l4.66 6M345 415.443v23.752l5.548 7.874c3.052 4.33 5.977 8.137 6.5 8.461.591.365.952-7.609.952-21.043v-21.631l-2.713-4.678c-1.493-2.573-4.418-7.335-6.5-10.583L345 391.69v23.753m435.5 31.208c-6.458 5.322-12.847 8.33-17.715 8.34-4.966.01-6.785 1.579-6.785 5.854 0 4.514 9.587 9.005 13.638 6.39 1.53-.988 13.479-20.231 12.574-20.25-.391-.009-.05-.434.759-.946s1.259-1.139 1-1.395c-.259-.256-1.821.648-3.471 2.007M969 468c0 2.833.222 3 4 3h4v4c0 3.778.167 4 3 4h3v-14h-14v3m3 18c0 1.111.667 2 1.5 2s1.5-.889 1.5-2-.667-2-1.5-2-1.5.889-1.5 2m-734 5.45V498H275.855l2.072 2.635c2.667 3.39 2.702 8.736.073 11.365-1.811 1.811-20.929 2.931-38.75 2.269-.874-.033-1.25 1.873-1.25 6.342V527h97v-13h-13.953c-8.449 0-14.956-.457-16.497-1.159-3.025-1.379-4.886-6.826-3.541-10.365 1.899-4.994 1.686-4.976 59.991-4.976 46.761 0 54.825-.213 56.787-1.5 3.372-2.211 3.927-5.73 1.317-8.341l-2.159-2.159-89.472-.3-89.473-.299v6.549m425.073-3.815c-2.61 3.317-2.594 3.647.339 7.059l2.412 2.806 26.05.311 26.051.311 2.538 3.016c3.191 3.793 3.217 6.837.085 10.216L718.095 514h-17.392c-19.398 0-21.572.69-20.139 6.398 1.706 6.797-.006 6.602 58.071 6.602H791v-13h-21.826c-21.345 0-21.872-.05-23.926-2.25-6.775-7.259-1.89-13.724 10.425-13.796 22.435-.132 35.094-.518 34.76-1.06-.205-.333-.456-3.145-.557-6.25l-.185-5.644H665.145l-2.072 2.635M976 492c0 2.762.278 3 3.5 3s3.5-.238 3.5-3-.278-3-3.5-3-3.5.238-3.5 3m-4 24c0 2 .5 3 1.5 3s1.5-1 1.5-3-.5-3-1.5-3-1.5 1-1.5 3m-621 4.5v6.5h21.441c13.215 0 21.678-.384 22.059-1 .34-.55 1.465-1 2.5-1s2.203-.52 2.595-1.155c.47-.759.233-.904-.69-.425-1.029.533-1.004.374.095-.596 1.964-1.734 2.458-5.568.951-7.384-.98-1.18-5.508-1.44-25.073-1.44H351v6.5m624.204 35.25c.111 11.413.355 17.038.54 12.5.303-7.412.536-8.25 2.296-8.25 1.783 0 1.96-.722 1.96-8 0-7.333.167-8 2-8 1.704 0 2-.667 2-4.5V535h-9l.204 20.75M238 549.52v6.52l69.587-.27 69.587-.27 2.413-2.806c3.009-3.499 3.005-4.193-.042-7.239L377.091 543H238v6.52m464.169-4.008c-2.375 3.02-1.856 5.802 1.589 8.512 2.412 1.897 4.198 1.976 44.877 1.976H791v-13H704.145l-1.976 2.512m-113.815 59.473c-59.313.492-62.241.602-64.25 2.42L522 609.31v178.781l2.455 2.454 2.454 2.455h62.046c60.712 0 62.088-.043 64.045-2 1.82-1.82 2-3.333 2-16.826 0-21.328 5.541-19.174-49.314-19.174H561v-34h60.154l2.923-2.923c2.917-2.917 2.923-2.948 2.923-15.351 0-22.547 1.396-21.726-36.95-21.726H561v-36.083l43.75.219c44.627.223 47.093.046 49.485-3.536.404-.605.741-7.983.75-16.395.015-14.811-.061-15.372-2.379-17.69-1.317-1.317-2.142-2.646-1.833-2.954.308-.309.373-.455.144-.326s-28.382.467-62.563.75m-423.929 2.027a180.298 180.298 0 0 0-2.925 3.125c-.782.869-.451 30.344.355 31.587 1.742 2.689 7.282 3.276 30.943 3.276h24.898l.666 13.282c.367 7.305.643 39.592.613 71.75l-.054 58.468 2.595 2.25c2.434 2.11 3.481 2.248 16.79 2.218 14.796-.033 16.267-.402 18.531-4.652.852-1.602 1.163-21.019 1.163-72.75V645H302.855l2.072-2.635c3.43-4.36 3.134-31.395-.382-34.91L302.091 605H234.22c-66.703 0-67.903.035-69.795 2.012m177.804-1.355c-4.227 1.742-4.229 1.78-4.229 94.339v88.095l2.455 2.454c2.393 2.394 2.839 2.455 17.825 2.455 21.262 0 19.72 2.214 19.72-28.314V741h29.828l9.42 12.75c5.18 7.013 12.236 16.958 15.679 22.1 3.443 5.143 7.845 11.106 9.783 13.25l3.523 3.9 20.633-.015c22.784-.017 24.255-.327 22.153-4.663-.753-1.552-1.278-3.193-1.169-3.646.11-.454-.214-.569-.72-.256-.506.313-1.141.009-1.411-.676-.269-.684-5.154-7.641-10.854-15.46-5.701-7.819-14.557-20.301-19.68-27.738l-9.315-13.521 8.315-8.313c17.832-17.827 24.413-39.028 18.847-60.712-7.037-27.41-27.551-46.612-55.032-51.513-7.417-1.322-72.838-2.039-75.771-.83m355.406 1.416L695 609.145v89.928c0 88.594.03 89.957 2 91.927 1.828 1.828 3.333 2 17.477 2 19.836 0 18.198 2.372 18.771-27.175l.439-22.676 9.664-10.824c5.315-5.954 10.279-11.352 11.031-11.997 1.479-1.268.621-2.273 38.941 45.638 10.353 12.944 19.876 24.331 21.163 25.304 2.097 1.586 4.549 1.742 23.569 1.5 26.253-.334 25.905-.105 17.16-11.32-3.356-4.304-5.868-8.202-5.584-8.662.285-.461.123-.714-.359-.563-1.198.376-35.867-42.659-61.974-76.929l-4.202-5.516 4.202-4.595c6.942-7.592 19.902-21.372 45.099-47.952 13.144-13.865 24.546-26.135 25.339-27.267 3.302-4.713 2.09-4.966-23.8-4.966-28.656 0-24.391-1.821-42.482 18.133-11.861 13.082-32.032 34.991-45.108 48.995-2.891 3.096-5.573 5.346-5.961 5-.388-.345-.456-.178-.15.372.305.55-1.085 2.899-3.09 5.219l-3.645 4.22v-78.112l-2.361-1.914c-3.687-2.988-29.66-2.864-33.504.16M960 620c0 2.762.278 3 3.5 3s3.5-.238 3.5-3-.278-3-3.5-3-3.5.238-3.5 3m-.157 23.5c.289 3.628.726 4.5 2.258 4.5 1.584 0 1.899-.746 1.899-4.5 0-4.004-.249-4.5-2.257-4.5-2.062 0-2.226.39-1.9 4.5M378 672.504v27.66l18.75-.335 18.75-.334 5.544-3.646c14.586-9.594 17.745-26.671 7.432-40.177-6.914-9.055-10.14-10.122-31.726-10.5l-18.75-.328v27.66M105 740c0 2 .5 3 1.5 3s1.5-1 1.5-3-.5-3-1.5-3-1.5 1-1.5 3m750 85.509c0 3.606 8.515 3.83 9.19.241.387-2.055.008-2.271-4.383-2.491-4.521-.227-4.807-.093-4.807 2.25m-301.642-.455c-4.661.963-9.606 4.374-11.783 8.127-1.058 1.825-2.244 3.544-2.635 3.819-1.449 1.02.803 9.975 3.349 13.312 2.145 2.812 3.87 3.76 9.418 5.175 11.589 2.956 11.774 3.04 12.13 5.478.682 4.665-5.792 5.408-13.418 1.539-6.243-3.167-6.395-3.155-10.223.794-4.278 4.413-4.108 5.057 2.431 9.24 9.503 6.079 24.129 5.809 29.884-.55.966-1.068 2.095-1.731 2.51-1.475.414.256.711-.092.66-.774-.051-.681.274-2.926.724-4.989 2.234-10.248-2.929-16.843-15.606-19.931-9.387-2.287-11.165-3.878-7.221-6.462 2.803-1.837 9.049-.588 12.754 2.55 1.666 1.411 1.923 1.39 2.833-.238.551-.984 2.313-3.283 3.916-5.109 3.284-3.74 3.198-3.9-4.081-7.614-5.288-2.697-11.248-3.799-15.642-2.892m-128.554 2.241c-1.837 2.063-2.027 3.485-1.871 14 .098 6.647-.228 11.705-.754 11.705-.51 0-4.464-4.163-8.787-9.25-13.84-16.286-15.394-17.752-18.805-17.735-6.672.033-7.438 2.964-7.527 28.78-.06 17.27-.056 17.3 2.506 19.862 2.068 2.068 3.176 2.445 5.701 1.94 4.457-.892 4.701-1.692 4.718-15.494l.015-12.397 8.215 8.897c19.584 21.211 21.322 22.344 25.712 16.762 1.939-2.464 2.073-3.918 2.073-22.435 0-22.037-.423-24.184-5.078-25.807-4.11-1.433-3.733-1.505-6.118 1.172m44.637.123c-1.799 1.314-1.964 2.995-2.262 22.974l-.321 21.557 2.526 2.526c2.495 2.495 2.72 2.525 18.936 2.525 18.468 0 21.68-1.031 21.68-6.958 0-4.898-3.211-6.042-16.965-6.042H481v-5.807l9.397-.346c10.474-.387 13.603-1.951 13.603-6.802 0-4.424-1.563-5.045-12.7-5.045H481v-6.837l12.591-.331c11.826-.312 12.706-.475 14.5-2.693 2.45-3.029 2.421-5.627-.091-8.139-2.597-2.597-35.128-3.088-38.559-.582m134.214.411c-5.032 5.56-.469 11.168 9.095 11.177l6.75.006.317 17.244c.347 18.827.975 20.744 6.794 20.744 5.66 0 6.389-2.395 6.389-21v-17h5.777c7.285 0 10.223-1.84 10.223-6.402 0-6.242-1.276-6.598-23.674-6.598-18.121 0-20.173.173-21.671 1.829m229.095 27.833c.688.278 1.813.278 2.5 0 .688-.277.125-.504-1.25-.504s-1.937.227-1.25.504m-88.398 53.588c.347 2.888.635 6.263.639 7.5.007 1.831.567 2.25 3.009 2.25h3v-15h-7.279l.631 5.25M720 921.5v5.5h3.5c3.417 0 3.5-.095 3.5-4v-4h4c2.889 0 4-.417 4-1.5 0-1.2-1.5-1.5-7.5-1.5H720v5.5m-16.825 18.25.174 4.75.381-4.197.38-4.198 4.695-.372 4.695-.373-5.25-.18L703 935l.175 4.75" fill-rule="evenodd"/><path fill="#8bbc2a" stroke="#8bbc2a" d="M529.6 185.841c-1.333 2.113-9.367 15.275-17.853 29.25-8.485 13.975-27.479 44.984-42.208 68.909a97755.818 97755.818 0 0 0-28.556 46.401l-1.777 2.901-5.416-8.401c-2.979-4.621-9.849-16.051-15.266-25.401-16.726-28.869-16.45-28.522-19.741-24.75-.84.962-5.341 8.275-10.002 16.25-4.661 7.975-13.493 22.825-19.626 33-6.134 10.175-11.149 19.4-11.145 20.5.009 2.652 8.591 16.713 45.49 74.524a1676.71 1676.71 0 0 1 14 22.411c10.764 17.599 10.796 17.595 23.558-3.102 22.893-37.127 29.464-45.101 38.942-47.259 5.181-1.18 52.335-1.461 51.833-.309-.183.421-1.863 3.284-3.734 6.362l-3.401 5.597-20.768.498c-18.157.436-21.186.742-24.099 2.435-3.224 1.873-5.849 5.702-30.017 43.794C439.461 465.767 435.846 469 427.951 469c-6.513 0-10.355-2.43-14.758-9.334-8.558-13.417-28.659-45.403-43.152-68.666-25.013-40.148-25.011-40.146-27.777-39.801-1.972.246-4.493 3.797-13.698 19.301-6.204 10.45-15.003 25.075-19.552 32.5-4.549 7.425-14.119 23.175-21.267 35-19.283 31.897-17.878 30.159-24.066 29.799l-5.154-.299-5.099-7.407c-2.804-4.073-6.386-9.698-7.96-12.5-3.229-5.747-3.556-5.863 7.554 2.666 7.68 5.895 10.278 6.651 13.815 4.022 4.427-3.29 4-6.475-1.958-14.599-5.797-7.904-24.027-34.301-25.333-36.682-.453-.825 2.052 1.235 5.565 4.577 12.803 12.177 16.832 13.92 21.7 9.384 3.497-3.258 2.728-5.454-7.138-20.365-5.129-7.753-12.627-19.409-16.662-25.903-12.319-19.827-14.815-19.942-25.991-1.193-2.951 4.95-10.237 16.462-16.192 25.582-11.487 17.59-11.966 18.78-8.828 21.918 4.416 4.416 9.603 2.577 19.362-6.862l6.861-6.638-2.741 4.5c-2.504 4.111-7.41 11.183-22.176 31.968-5.534 7.789-6.375 10.82-3.735 13.461 3.587 3.586 10.534.996 22.679-8.456 3.594-2.796 3.474-2.16-.891 4.758-9.901 15.691-12.465 19.07-15.388 20.281-6.352 2.631-8.837 9.122-4.971 12.988 1.816 1.816 3.333 2 16.5 2H222v13h-16.045c-18.379 0-20.955 1.03-20.955 8.382 0 6.633 2.733 7.618 21.135 7.618H222v3.375c0 1.856-.277 4.758-.615 6.449l-.615 3.075-23.282.3c-26.524.343-27.488.619-27.488 7.883 0 7.456 1.67 7.918 28.635 7.918H222v13h-27.365c-26.171 0-27.48.09-30 2.073-3.512 2.762-3.621 8.032-.237 11.416l2.398 2.398 346.626-.068c341.958-.068 346.659-.095 349.102-2.016 3.563-2.803 3.481-8.867-.159-11.73-2.514-1.978-3.841-2.073-29-2.073H807v-13h23.389c26.02 0 26.973-.227 28.225-6.71.519-2.686.124-3.706-2.42-6.25l-3.04-3.04H807v-13h15.045c14.641 0 15.112-.066 17.5-2.455 3.303-3.302 3.139-7.015-.468-10.622L836.154 498H807v-13h14.277c16.381 0 18.723-.797 18.723-6.37 0-3.512-3.302-7.324-8.103-9.353-2.486-1.051-19.65-24.857-18.646-25.862.243-.242 2.198.977 4.345 2.711 10.899 8.798 18.063 11.119 21.749 7.045 3.132-3.461 3.319-3.099-14.314-27.671-5.132-7.15-10.913-15.25-12.848-18l-3.518-5 5.417 5.065c13.167 12.31 16.879 13.915 21.729 9.396 3.449-3.213 2.821-4.884-8.137-21.656-5.679-8.693-12.726-19.855-15.66-24.805-6.926-11.685-9.544-14.504-13.451-14.485-4.304.022-4.503.227-12.05 12.485-3.725 6.05-11.439 18.233-17.143 27.073-11.26 17.452-11.481 18.035-8.056 21.253 4.591 4.312 10.485 2.339 20.06-6.716l5.931-5.61-7.902 11.519c-15.468 22.546-14.42 21.434-16.306 17.294-.674-1.479-5.179-8.791-10.012-16.25-11.136-17.187-55.539-89.54-74.298-121.063-10.262-17.246-9.83-17.28-21.426 1.703-4.971 8.138-12.531 20.76-16.799 28.049-4.268 7.289-8.107 13.467-8.531 13.729-.774.478-44.918-71.689-77.062-125.981-21.576-36.44-20.539-35.31-25.369-27.659m6.4 74.424v34.665l3.23 3.785c6.035 7.073 20.199 22.755 28.256 31.285 4.415 4.675 11.288 12.215 15.271 16.756l7.243 8.257v-42.108l-11.311-18.203c-6.221-10.011-17.993-29.227-26.161-42.702-8.168-13.475-15.229-24.928-15.69-25.45-.461-.522-.838 14.649-.838 33.715m192.383-31.379c-16.451 4.261-29.582 20.317-30.057 36.752-.739 25.603 16.025 43.896 40.174 43.838 42.617-.102 54.819-60.333 15.838-78.179-6.029-2.76-19.705-4.03-25.955-2.411m-327.362 99.832L401 342.936l11.25 5.379c6.188 2.958 11.426 5.233 11.642 5.056.414-.339-12.513-22.682-19.019-32.871l-3.831-6-.021 14.218m270.121 15.17.358 16.139 3 2.46c3.82 3.133 13.707 9.815 24.178 16.34l8.178 5.097-8.249-13.212a8179.549 8179.549 0 0 1-17.067-27.489c-4.85-7.852-9.254-14.546-9.787-14.875-.614-.38-.837 5.294-.611 15.54M344 413.875v24.32l5.394 7.653c2.966 4.208 6.341 8.509 7.5 9.557L359 457.31v-43.626l-6.162-10.092c-3.389-5.551-6.764-10.98-7.5-12.065-1.135-1.673-1.338 1.721-1.338 22.348m208.663-17.573 4.837 6.471 20 .364c26.362.479 22.595-2.175 45.235 31.868 23.829 35.831 19.758 32.424 39.217 32.813 17.134.342 20.048-.487 20.048-5.707 0-5.341-2.925-6.577-16.831-7.111-7.156-.275-13.213-.725-13.461-1-.248-.275-8.659-12.875-18.691-28-21.11-31.828-19.834-30.192-25.863-33.165-4.446-2.192-5.878-2.31-31.991-2.649l-27.337-.355 4.837 6.471m230.277 48.112c-6.408 6.078-15.511 10.786-20.018 10.353-3.722-.358-4.867-.085-5.782 1.38-3.586 5.742 1.103 12.143 8.541 11.657l4.664-.304 7.411-11.833c7.002-11.179 8.474-14.373 5.184-11.253M237.222 491.5v6.5l18.639.032c19.49.033 20.639.266 22.976 4.652 1.799 3.379 1.391 6.179-1.292 8.861-2.434 2.435-2.612 2.455-21.5 2.455H237v13l49.25.002 49.25.002-.335-6.502-.336-6.502h-14.268c-13.76 0-14.363-.087-16.915-2.452-3.648-3.382-3.653-8.61-.011-11.475 2.592-2.039 3.52-2.073 56.75-2.077 52.184-.003 54.231-.074 57.365-1.985 2.529-1.542 3.25-2.662 3.25-5.047 0-6.126 2.588-5.964-95.357-5.964h-88.421v6.5m425.191-4.007c-2.381 3.633-1.128 7.31 3.09 9.073 2.659 1.111 8.866 1.434 27.542 1.434h24.109l2.923 2.923c1.608 1.608 2.923 3.892 2.923 5.077s-1.315 3.469-2.923 5.077L717.154 514h-17.542c-16.319 0-17.614.135-18.577 1.934-1.589 2.969-1.263 4.641 1.554 7.989l2.589 3.077H791v-13h-21.545c-21.543 0-21.546 0-24-2.455-2.98-2.979-3.205-7.397-.545-10.684 1.888-2.334 2.161-2.364 24-2.665l22.09-.304V485H664.046l-1.633 2.493M350 520.5v6.5h46.154l2.923-2.923c3.359-3.359 3.709-6.056 1.094-8.422-1.595-1.444-4.911-1.655-26-1.655H350v6.5m-113 29v6.5h69.05c58.645 0 69.476-.22 71.878-1.463 4.491-2.322 5.347-6.262 2.072-9.537-1.962-1.962-3.333-2-72.5-2H237v6.5m464.44-4.049c-1.959 2.99-1.217 5.792 2.254 8.523 2.495 1.962 3.908 2.026 44.941 2.026H791v-13h-87.954l-1.606 2.451m-536.69 61.5-2.75 2.194v15.773c0 21.413-2.861 19.584 30.607 19.576l26.393-.006v71.645c0 68.425.084 71.749 1.865 73.948 2.519 3.112 31.285 3.25 34.285.166 1.553-1.597 1.761-7.924 2.417-73.497l.717-71.75 3.108-.161c1.709-.088 11.511-.032 21.78.124l18.673.283 2.577-2.577c3.817-3.817 4.009-29.894.253-34.261l-2.325-2.703-67.425-.473-67.425-.474-2.75 2.193m210.813-1.187c-28.892.231-33.159.465-34.75 1.905-1.725 1.561-1.813 5.987-1.813 91.312v89.67l2.446 2.298c2.411 2.266 2.668 2.288 18.018 1.569 20.211-.948 18.536 1.627 18.535-28.491l-.002-23.527 15.252.323 15.251.323 3.483 4.677c1.915 2.572 9.293 13.002 16.395 23.177 7.102 10.175 13.826 19.513 14.942 20.75 1.986 2.202 2.49 2.25 23.795 2.25 13.692 0 22-.378 22.396-1.018.346-.56-3.543-6.748-8.642-13.75-18.928-25.993-35.738-50.847-34.816-51.475 2.996-2.042 11.392-10.365 14.843-14.715 31.482-39.685 5.074-98.751-46.896-104.892-3.025-.358-20.321-.531-38.437-.386m171.105.198c-20.112.496-21.945.691-23.25 2.479-2.507 3.432-2.077 178.9.444 181.421 2.837 2.837 124.198 3.96 128.138 1.186 3.936-2.771 4.396-29.743.572-33.567L650.091 755H560.166l-.117-16.959-.117-16.959 30.93-.291c38.59-.363 35.138 1.493 35.138-18.89 0-13.921-.132-14.938-2.25-17.319l-2.25-2.529-30.107-.277-30.106-.276-.644-10.406c-.353-5.723-.643-13.864-.643-18.091v-7.686l19.661-.659c10.813-.362 31.288-.658 45.5-.658 32.528 0 29.839 1.716 29.839-19.045 0-14.641-.066-15.112-2.455-17.5L650.091 605l-40.796.212c-22.437.116-50.62.454-62.627.75m164.602-.215c-12.482.293-13.299.436-14.436 2.532-.913 1.683-1.221 23.786-1.272 91.221l-.066 89 2.28 2.323c2.209 2.252 2.726 2.314 16.65 2C734.5 792.372 733 794.564 733 765.675V742.66l6.265-6.58c3.445-3.619 8.352-8.942 10.902-11.83 5.332-6.035 5.655-6.131 8.285-2.469 1.073 1.496 6.108 7.894 11.189 14.219 5.08 6.325 15.355 19.15 22.833 28.5 7.478 9.35 15.641 19.371 18.14 22.269l4.544 5.268 22.671-.268c20.056-.238 22.658-.454 22.557-1.868-.111-1.56-17.735-24.268-65.552-84.462-5.269-6.633-10.188-13.033-10.93-14.221-1.266-2.028-.673-2.856 9.623-13.44 12.452-12.799 56.263-59.152 61.812-65.399 6.554-7.378 6.553-7.379-22.792-7.379h-23.29l-4.878 4.783c-2.684 2.631-9.184 9.493-14.445 15.25a8840.19 8840.19 0 0 1-21 22.873 3150.9 3150.9 0 0 0-23.434 25.78l-12 13.373-.5-39.447c-.275-21.696-.725-39.648-1-39.894-1.358-1.214-5.018-2.693-6.184-2.5-.724.12-7.27.358-14.546.529M378 671.901V700l14.25.202c18.876.267 20.134.164 25.174-2.065 19.629-8.683 23.494-32.135 7.645-46.385-6.87-6.177-9.973-6.956-29.819-7.488l-17.25-.462v28.099m171.422 154.462c-4.051 1.837-9.259 8.252-10.029 12.354-1.597 8.516 3.715 14.631 15.059 17.333 9.196 2.191 11.296 3.684 9.61 6.833-1.574 2.942-8.078 2.781-14.485-.357-5.355-2.623-6.475-2.422-10.501 1.882L536.651 867l2.302 2.45c9.305 9.905 29.995 9.356 35.772-.95 5.885-10.498.205-19.746-14.518-23.635-8.741-2.309-10.909-4.147-7.678-6.51 2.715-1.985 6.06-1.667 11.576 1.104 2.692 1.352 4.895 2.043 4.895 1.535 0-.509 1.35-2.462 3-4.341 4.035-4.596 3.88-5.075-2.665-8.278-6.655-3.255-15.252-4.124-19.913-2.012m-159.767 1.466c-1.915 2.116-2.514 42.697-.681 46.122 1.417 2.648 5.763 3.452 8.603 1.591 2.255-1.478 2.378-2.143 2.644-14.345l.279-12.796 12.417 13.822c12.977 14.446 15.408 16.105 19.59 13.364l2.493-1.633v-22.322c0-24.468-.28-25.632-6.174-25.632-4.812 0-5.735 2.442-6.044 15.979l-.282 12.393-11.41-12.936c-6.275-7.115-12.098-13.498-12.941-14.186-2.235-1.824-6.588-1.528-8.494.579m80.568-.272c-2.184 1.529-2.223 1.948-2.223 23.8 0 15.967.339 22.582 1.2 23.443.846.846 6.587 1.2 19.443 1.2 17.719 0 18.288-.064 19.8-2.223 4.72-6.738-.121-9.777-15.578-9.777H481v-7h9.5c10.187 0 13.5-1.458 13.5-5.943 0-3.68-3.73-5.057-13.703-5.057-9.04 0-9.274-.059-9.886-2.498-1.296-5.166-.503-5.502 12.985-5.502 12.114 0 12.514-.07 14.435-2.512 2.296-2.919 1.859-5.891-1.178-8.019-3.134-2.195-33.275-2.123-36.43.088m134 0c-6.412 4.491-.694 11.443 9.412 11.443H620v16.845c0 18.734.473 20.155 6.706 20.155 5.345 0 5.728-1.422 5.415-20.096L631.837 839h5.647c10.22 0 14.995-5.521 9.516-11-2.715-2.715-38.998-3.091-42.777-.443" fill-rule="evenodd"/><path fill="#cddddb" stroke="#cddddb" d="M531.322 184.25c-1.115 1.238-6.456 9.675-11.87 18.75-5.413 9.075-19.71 32.475-31.77 52-19.857 32.149-40.831 66.31-45.895 74.75-1.073 1.787-2.27 3.25-2.661 3.25-.881 0-15.881-24.361-27.586-44.802-6.143-10.728-9.232-15.211-10.334-14.999-.865.166-4.12 4.577-7.234 9.802a69441.68 69441.68 0 0 1-19.827 33.21c-18.79 31.453-18.031 27.595-8.385 42.6 2.011 3.129 14.115 22.339 26.896 42.689 34.514 54.95 32.49 51.959 35.384 52.296 2.178.254 3.178-.714 7-6.774 2.453-3.889 10.238-15.948 17.3-26.797 20.649-31.719 17.916-30.202 54.403-30.215l26.243-.01-4.323 6.75-4.323 6.75-20.92.5c-13.137.314-21.664.931-22.92 1.658-3.628 2.101-6.17 5.617-20.489 28.342-19.249 30.548-20.835 32.573-26.917 34.379-3.392 1.008-6.056 1.193-8.668.604-7.421-1.673-3.306 4.179-53.711-76.396-25.868-41.351-26.761-42.597-29.383-40.992-.983.603-10.164 15.003-20.401 32C264.382 477.492 270.089 469 263.529 469h-4.392l-8.069-12.141c-10.126-15.239-10.57-17.516-1.959-10.054 9.749 8.448 13.952 9.942 18.668 6.638 3.282-2.298 2.732-5.527-2.06-12.083-10.041-13.737-26.904-38.506-26.495-38.916.245-.244 4.069 2.923 8.499 7.038 10.821 10.053 14.467 11.421 18.824 7.063 3.498-3.497 3.338-3.99-5.733-17.684-4.504-6.799-11.692-17.944-15.974-24.768-14.877-23.704-16.118-23.839-28.407-3.093-3.747 6.325-11.002 17.832-16.122 25.571-9.88 14.933-10.972 18.151-7.086 20.872 3.851 2.698 11.19.487 15.488-4.665 1.046-1.253 3.64-3.853 5.766-5.778l3.865-3.5-2.275 4c-2.405 4.228-21.851 32.026-25.764 36.827-2.774 3.405-2.952 6.776-.474 9.018 3.549 3.212 8.777 1.499 19.094-6.257 2.982-2.242 5.629-3.869 5.882-3.616 1.077 1.077-14.195 23.792-17.179 25.55-8.119 4.783-10.461 9.906-6.312 13.804 2.152 2.021 3.312 2.174 16.5 2.174H222v12.862l-15.922.319c-17.725.355-21.078 1.609-21.078 7.883 0 6.621 2.06 7.402 20.454 7.754l16.634.318-.294 6.682-.294 6.682-24.209.5c-26.354.544-27.172.744-27.259 6.668-.111 7.584 2.529 8.332 29.418 8.332H222V555.911l-28.09.294-28.089.295-1.911 2.361c-3.975 4.912-1.199 11.431 5.395 12.668 1.822.342 59.475.475 128.118.296l124.806-.325 3.997-4.5c2.198-2.475 16.405-19.8 31.57-38.5 29.307-36.138 37.582-46.183 48.593-58.989 3.788-4.406 9.638-11.637 13-16.069 7.812-10.301 20.96-26.324 21.611-26.337.275-.006 6.575 7.684 14 17.089 7.425 9.404 18.881 23.67 25.457 31.702 6.576 8.032 18.051 22.083 25.5 31.223 20.093 24.657 38.506 47.048 41.017 49.881 1.22 1.375 4.311 5.086 6.871 8.246 4.512 5.57 4.804 5.747 9.527 5.75 5.806.005 6.554 1.45-8.349-16.134-5.762-6.799-16.112-19.358-23-27.909-6.888-8.551-18.018-22.051-24.735-30-6.717-7.949-16.392-19.673-21.5-26.053-36.149-45.148-44.183-54.9-45.231-54.9-.652 0-2.703 2.025-4.557 4.5-3.589 4.79-4.287 5.411-3.357 2.989.38-.992.112-1.342-.782-1.018-.748.271-2.394-.304-3.658-1.278l-2.296-1.772 5.178-6.84c2.848-3.762 6.135-8.525 7.305-10.584l2.127-3.745 10.74 14.124c9.5 12.494 30.221 38.172 76.76 95.124a38078.314 38078.314 0 0 1 40.404 49.5c6.049 7.425 11.467 13.836 12.039 14.247.572.41 41.166.635 90.21.5l89.169-.247 2.581-2.424c3.336-3.135 3.386-7.361.125-10.621L860.091 556H807l-.011-2.75c-.006-1.513-.286-4.414-.623-6.449l-.611-3.698 24.02-.302c27.312-.342 28.225-.596 28.225-7.834 0-6.25-.606-6.409-26.568-6.967-12.797-.275-23.503-.736-23.791-1.025-.288-.288-.662-3.438-.832-7l-.309-6.475 13 .299c14.649.337 18.044-.308 20.761-3.947 1.762-2.36 1.788-2.799.366-6.202-2.084-4.987-4.452-5.65-20.192-5.65H807v-13h13.865c12.55 0 14.117-.198 16.522-2.09 4.368-3.435 1.737-10.724-4.63-12.825-3.134-1.034-21.852-26.323-20.491-27.684.243-.243 3.095 1.631 6.338 4.164 10.355 8.09 15.759 9.99 19.771 6.952 4.1-3.105 2.663-5.582-27.21-46.9-4.632-6.407-1.684-4.831 6.335 3.386 9.291 9.521 13.554 11.034 18.147 6.441 3.315-3.315 3.12-3.88-6.245-18.05-4.323-6.542-11.742-18.194-16.486-25.894-11.834-19.208-15.557-20.818-22.499-9.732-1.974 3.153-9.656 15.283-17.072 26.957-14.565 22.927-15.415 25.276-10.208 28.185 4.365 2.439 9.353.231 17.126-7.581 3.676-3.693 6.886-6.513 7.134-6.266.654.655-21.295 31.937-22.408 31.937-.516 0-1.69-1.455-2.61-3.234-.92-1.779-4.066-6.906-6.991-11.393-11.362-17.433-72.056-116.625-81.76-133.623-3.035-5.315-5.572-6.094-8.147-2.5-2.119 2.958-14.054 22.658-24.534 40.5-4.604 7.838-8.7 14.25-9.102 14.25-.724 0-11.862-17.591-21.529-34-2.754-4.675-12.419-20.65-21.477-35.5-9.058-14.85-24.476-40.5-34.263-57-20.24-34.125-19.595-33.313-23.254-29.25m4.737 75.769L536 295.537l13.75 15.473c7.563 8.51 17.578 19.527 22.256 24.481 4.678 4.955 10.641 11.476 13.25 14.492l4.744 5.483V312.705l-7.125-11.602c-3.919-6.382-15.61-25.553-25.981-42.603-10.37-17.05-19.288-31.675-19.816-32.5-.625-.976-.981 10.918-1.019 34.019m165.475-7.47c-2.244 5.335-3.662 13.157-3.062 16.89.271 1.683.697 4.596.948 6.471 2.485 18.588 20.883 34.41 39.08 33.611 15.754-.691 15.921.354-3.314-20.818-7.715-8.492-29.21-35.011-30.926-38.154-.969-1.777-1.214-1.598-2.726 2m-300.53 76.501.005 14.45 11.635 5.277c6.399 2.903 11.783 5.129 11.964 4.948.383-.383-21.101-36.618-22.6-38.117-.677-.677-1.007 3.736-1.004 13.442M671 344.001v16.001l5.75 4.454c6.358 4.926 29.325 19.802 29.814 19.313.171-.17-2.924-5.483-6.877-11.805a6181.376 6181.376 0 0 1-17.187-27.726c-5.5-8.926-10.337-16.231-10.75-16.234-.413-.002-.75 7.196-.75 15.997m-327.231 69.568L343.5 437.5l5.4 8c2.97 4.4 6.457 9.115 7.75 10.477l2.35 2.478v-45.198l-6.578-10.878c-3.617-5.984-6.984-11.298-7.481-11.81-.54-.556-1.012 8.717-1.172 23m204.842-22.378c.441.72 2.766 3.896 5.167 7.059l4.365 5.75h19.478c26.548 0 21.817-3.472 47.379 34.778 21.779 32.59 19.065 30.563 40.178 30 14.081-.375 16.822-1.493 16.822-6.86 0-5.306-3.742-6.918-16.053-6.918-5.931 0-11.542-.291-12.469-.647-.928-.356-9.778-12.843-19.668-27.75-26.216-39.515-20.594-35.995-58.155-36.412-22.742-.252-27.698-.068-27.044 1m228.572 57.102c-7.49 5.399-8.833 6.006-13.5 6.101-6.631.136-7.683.887-7.683 5.491 0 4.751 2.939 7.649 8.713 8.591 4.141.676 4.269.608 7.5-3.946 4.215-5.943 13.946-21.725 13.572-22.012-.157-.121-4.028 2.478-8.602 5.775m-237.588 6.814c-.248.766-.955 4.543-1.57 8.393-6.338 39.665-32.029 90.195-52.438 103.141-2.48 1.572-4.375 3.309-4.213 3.859.3 1.018 110.718 1.779 115.846.798 2.38-.455 1.938-1.081-7.152-10.141-22.163-22.092-39.465-57.659-47.016-96.646-1.908-9.852-2.654-11.88-3.457-9.404M237 491.439v6.44l19.089.31 19.088.311 2.412 2.806c2.905 3.381 3.072 6.655.501 9.833-1.872 2.315-2.293 2.367-21.5 2.67l-19.59.31v6.333c0 4.853.37 6.476 1.582 6.941 2.125.815 69.951.777 85.303-.049l12.199-.656-.292-6.594-.292-6.594-15.198-.276c-15.044-.273-15.218-.302-17.25-2.885-2.564-3.26-2.611-6.426-.141-9.478l1.911-2.361 55.985-.5c62.112-.555 60.193-.328 60.193-7.098 0-6.183 4.49-5.902-94.223-5.902H237v6.439m425.655-4.61c-2.276 2.515-2.074 6.481.447 8.766 1.916 1.736 4.376 1.953 27.75 2.45 30.006.638 31.148.945 31.148 8.389 0 5.837-2.306 6.566-20.777 6.566-18.876 0-21.223.675-21.223 6.102 0 8.466 6.857 9.285 73 8.719l37.5-.321.292-6.593.292-6.593-21.792-.601-21.792-.601-2.25-2.612c-1.237-1.436-2.25-3.461-2.25-4.5 0-2.464 3.949-7.007 6.5-7.478 1.1-.203 10.888-.403 21.75-.445L791 498v-13h-63.345c-60.098 0-63.43.094-65 1.829M350 520.657v7.657l16.66-.657c9.163-.361 19.758-.657 23.545-.657 8.381 0 12.148-2.676 11.607-8.244-.518-5.328-2.491-5.725-28.562-5.741L350 513v7.657M237 549.5v6.5h69.865c69.167 0 69.892-.021 72.5-2.073 3.135-2.465 3.514-6.822.806-9.272-1.665-1.507-8.143-1.655-72.5-1.655H237v6.5m464.655-4.671c-2.35 2.597-2.05 5.866.8 8.716l2.454 2.455H791v-13h-43.845c-41.206 0-43.945.11-45.5 1.829m-538.098 63.394c-1.239 1.768-1.557 5.243-1.557 17C162 645.7 159.239 644 192.5 644H219v72c0 70.667.037 72.037 2 74 1.822 1.822 3.333 2 17 2s15.178-.178 17-2c1.963-1.963 2-3.333 2-74v-72h22.845c28.413 0 25.982 1.756 26.236-18.95.183-14.882.113-15.475-2.056-17.231-2.123-1.719-6.005-1.819-70.579-1.819h-68.333l-1.556 2.223M341 608c-2.764 2.764-3.191 177.854-.443 181.777 1.497 2.138 2.158 2.222 17.25 2.208 8.631-.009 16.368-.442 17.193-.962 1.244-.786 1.585-5.17 2-25.735l.5-24.788 15.148-.275 15.149-.276 7.937 10.776c4.365 5.926 12.134 16.837 17.264 24.247 12.861 18.574 9.556 16.955 34.693 16.995 11.678.018 21.443-.375 21.753-.876.309-.5-3.333-6.238-8.094-12.75-9.085-12.429-23.355-32.776-31.673-45.163l-4.917-7.321 2.37-1.581c1.303-.87 5.101-4.332 8.439-7.693 35.606-35.855 15.997-98.641-34.069-109.088-12.224-2.55-77.856-2.139-80.5.505m183.057.655c-3.131 3.98-2.797 177.765.348 181.24 1.898 2.097 2.134 2.105 64.693 2.105h62.789l1.556-2.223c2.164-3.089 2.238-26.559.097-30.7-2.103-4.067-1.877-4.048-49.79-4.063L560 755v-35h31c38.429 0 35 1.801 35-18.389 0-12.674-.228-14.671-1.91-16.75l-1.911-2.361-30.839-.5-30.84-.5-.272-18.75-.272-18.75h90.899l2.072-2.635C654.796 638.99 655 637.376 655 625c0-12.376-.204-13.99-2.073-16.365L650.855 606h-124.71l-2.088 2.655m173.598-.826c-2.147 2.372-2.59 180.836-.455 182.971.828.828 5.895 1.2 16.326 1.2 20.887 0 19.474 1.95 19.474-26.868v-22.24l11.147-12.513c8.979-10.079 11.381-12.257 12.351-11.196.661.724 4.781 5.817 9.154 11.317s13.746 17.2 20.829 26a8250.08 8250.08 0 0 1 15.662 19.5c1.531 1.925 5.073 6.321 7.872 9.769l5.09 6.269 22.184-.269c19.088-.231 22.226-.485 22.482-1.817.164-.851-7.03-10.801-15.987-22.112-8.956-11.311-25.284-31.921-36.284-45.8-11-13.879-21.2-26.901-22.667-28.938l-2.667-3.704 4.206-4.449c2.313-2.447 16.113-17 30.667-32.339 33.813-35.641 42.015-44.713 41.367-45.762-.288-.467-11.712-.848-25.385-.848h-24.862l-12.307 13.25C778.515 637.916 776.431 640.181 774 643c-1.186 1.375-6.768 7.45-12.404 13.5-5.637 6.05-14.264 15.456-19.172 20.903l-8.924 9.903-.5-39.001c-.398-31.02-.781-39.338-1.872-40.653-2.163-2.603-31.095-2.451-33.473.177m-320.651 51.843c.002 8.705.297 21.565.654 28.578l.651 12.75h16.256c19.429 0 24.278-1.341 31.951-8.841 11.833-11.563 11.826-27.415-.016-39.591-7.194-7.398-9.489-8.024-30.75-8.396l-18.75-.328.004 15.828m175.271 166.249c-4.543 1.15-7.723 3.446-10.078 7.278-6.498 10.571-1.201 19.88 12.973 22.796 10.196 2.098 12.702 4.88 7.607 8.448-3.134 2.196-5.426 1.929-12.277-1.428l-6-2.94-3.49 3.469c-4.3 4.274-3.673 5.759 4.091 9.689 9.139 4.627 21.146 3.743 27.165-1.999 8.423-8.036 3.835-22.045-8.249-25.189l-8.07-2.101c-4.427-1.153-5.86-3.14-3.936-5.457 1.759-2.12 7.865-1.838 12.361.572 2.113 1.133 3.932 1.921 4.042 1.75.11-.17 1.691-2.242 3.514-4.605 1.822-2.363 3.146-4.446 2.943-4.63-4.502-4.052-16.783-7.125-22.596-5.653M392 826.694c-3.689 1.318-4 3.252-4 24.842 0 23.535.257 24.464 6.77 24.464 4.352 0 4.667-.909 5.23-15.105l.5-12.604 12.819 13.854c10.548 11.4 13.312 13.855 15.595 13.855 5.73 0 6.086-1.479 6.086-25.306v-21.648l-2.493-1.633c-6.737-4.415-9.507.146-9.507 15.652 0 6.014-.382 10.935-.849 10.935-.467 0-5.277-5.207-10.689-11.57-13.294-15.631-15.275-17.233-19.462-15.736m78.441.724c-1.801 1.315-1.963 2.986-2.247 23.109-.393 27.84-2.28 25.473 20.306 25.473 18.877 0 20.5-.496 20.5-6.27 0-3.817-1.19-4.18-15.5-4.73l-13-.5-.31-3.75-.311-3.75h9.606c8.866 0 9.795-.189 12.06-2.455 2.848-2.848 2.955-3.478 1.037-6.104-1.217-1.667-2.913-1.989-12-2.282L480 845.818V838h12.277c14.336 0 17.046-1.037 16.529-6.323-.482-4.93-3.117-5.645-20.865-5.662-11.868-.012-16.019.321-17.5 1.403M604 828c-5.283 5.283-1.246 10 8.557 10H620v17c0 18.949.68 21 6.965 21 4.528 0 5.035-2.106 5.035-20.934V838h6.845c9.792 0 13.656-5.101 7.52-9.927-3.977-3.129-39.248-3.19-42.365-.073" fill-rule="evenodd"/><path fill="#0c3432" stroke="#0c3432" d="M528.706 188.25c-1.846 2.887-6.668 10.875-10.717 17.75s-12.388 20.6-18.531 30.5c-20.2 32.555-44.998 72.785-52.543 85.242-4.078 6.733-7.64 12.236-7.915 12.23-.275-.006-1.902-2.365-3.615-5.242-1.713-2.876-6.003-9.955-9.533-15.73-3.53-5.775-9.749-16.35-13.819-23.5-9.481-16.654-9.79-17.03-12.197-14.851-1.012.916-6.191 9.132-11.509 18.258-5.318 9.126-13.215 22.394-17.549 29.484-13.81 22.59-13.67 21.994-7.5 31.863 2.322 3.714 11.939 19.014 21.371 34 9.433 14.985 21.95 34.896 27.817 44.246 12.113 19.303 14.734 22.495 17.194 20.943.901-.569 6.926-9.371 13.388-19.562 20.142-31.76 24.82-37.961 31.045-41.154l5.407-2.773 26.671.273 26.67.273-4.17 6.739-4.171 6.739-19 .017c-27.901.024-25.473-1.472-43.007 26.505-21.597 34.461-23.138 36.414-30.442 38.603-9.646 2.89-13.919-.358-26.194-19.906A90786.76 90786.76 0 0 1 371.255 394c-13.955-22.275-25.942-41.079-26.636-41.787-2.386-2.429-4.591.013-13.216 14.635-4.753 8.059-15.513 25.902-23.911 39.652-8.398 13.75-19.42 31.975-24.493 40.5-13.401 22.516-13.086 22.162-19.337 21.799l-5.162-.299-8.25-12.356c-11.105-16.631-11.021-17.537.75-8.092 10.183 8.171 16.167 9.102 18.363 2.856.953-2.709 1.326-2.053-11.337-19.908-13.376-18.86-20.032-29-19.035-29 .612 0 4.466 3.174 8.564 7.052 8.896 8.42 13.254 10.625 17.241 8.724 5.218-2.489 4.305-5.926-5.545-20.858-4.869-7.38-11.93-18.368-15.692-24.418-13.421-21.58-14.821-21.506-28.594 1.5-3.458 5.775-10.264 16.451-15.126 23.724C188.76 414.298 188.392 418 197.822 418c4.186 0 4.87-.437 12.8-8.177 4.608-4.498 8.378-7.708 8.378-7.134 0 1.184-8.381 13.744-21.841 32.73-5.038 7.106-9.159 13.518-9.159 14.25 0 1.688 3.598 5.334 5.25 5.321 2.504-.019 11.38-4.8 16.58-8.93 2.932-2.328 5.544-4.02 5.805-3.758.633.633-12.48 22.113-15.086 24.711-1.127 1.123-3.612 3.052-5.523 4.287-5.279 3.411-6.852 6.791-4.693 10.085l1.713 2.615h29.735l.396 3.393c.218 1.866.22 5.239.005 7.496l-.391 4.105-15.975-.247-15.975-.247-2.421 2.806c-2.958 3.429-3.047 5.627-.366 9.035 2.05 2.606 2.085 2.612 18.75 2.885l16.696.274v14l-24.34.5c-24.094.495-24.36.524-26.25 2.861-2.455 3.034-2.413 5.23.163 8.504l2.072 2.635H222v15.061l-25.25-.062c-13.887-.034-26.701-.048-28.474-.031-5.717.056-8.105 7.294-3.821 11.577l2.454 2.455h234.152l3.146-3.583c4.835-5.506 43.057-51.513 54.293-65.35 5.5-6.774 12.475-15.323 15.5-18.999 3.025-3.676 6.85-8.405 8.5-10.508 1.65-2.104 7.995-9.953 14.101-17.442 20.076-24.629 38.603-48.539 41.22-53.198l2.573-4.581 10.274 13.581c5.651 7.469 16.86 21.68 24.909 31.58 8.05 9.9 18.996 23.4 24.325 30 5.33 6.6 21.11 25.95 35.068 43 13.959 17.05 29.887 36.513 35.396 43.25L680.384 571h179.707l2.454-2.455c3.055-3.054 3.11-5.671.194-9.062l-2.261-2.629-26.989-.177-26.989-.177v-14l24.332-.5c22.614-.465 24.433-.637 25.75-2.441 1.993-2.729 1.764-5.849-.655-8.924L853.855 528H806v-15h15.943c15.342 0 16.002-.084 17.5-2.223 2.34-3.34 1.888-6.6-1.366-9.854L835.154 498H805.909l.295-6.75.296-6.75 14.969-.189c12.972-.164 15.139-.422 16.25-1.941 3.096-4.234.361-9.88-5.941-12.268-2.772-1.05-20.726-26.487-19.536-27.677.309-.309 4.165 2.11 8.57 5.375 9.033 6.698 12.081 7.837 15.987 5.974 4.798-2.289 4.066-5.324-3.94-16.328-13.491-18.543-24.755-34.883-24.336-35.302.23-.23 4.227 3.188 8.882 7.594 8.878 8.404 11.78 9.903 16.038 8.284 6.283-2.389 5.767-3.999-8.191-25.582-7.092-10.967-14.325-22.415-16.074-25.44-4.369-7.56-5.41-8.757-8.705-10.01-4.248-1.615-6.663.712-15.414 14.85a2256.187 2256.187 0 0 1-15.916 25.236c-9.52 14.838-10.08 16.231-7.613 18.957 3.941 4.354 9.957 2.303 19.418-6.623 3.904-3.683 7.274-6.52 7.488-6.303.448.451-22.677 33.889-23.436 33.887-.275-.001-2.342-3.037-4.594-6.748-2.252-3.71-10.967-17.771-19.368-31.246-8.4-13.475-24.271-39.35-35.27-57.5-10.998-18.15-21.443-35.25-23.209-38-1.767-2.75-4.881-7.995-6.919-11.655-4.086-7.338-5.938-9.328-7.956-8.554-.738.283-8 11.696-16.138 25.362C635.405 335.759 632.171 341 631.585 341c-.213 0-1.27-1.462-2.348-3.25-1.079-1.788-10.417-17.2-20.751-34.25-31.904-52.635-58.848-97.558-64.477-107.5-8.73-15.419-9.993-16.058-15.303-7.75m7.321 71.379-.027 36.13 7.319 8.37c4.026 4.604 11.903 13.321 17.505 19.371 5.603 6.05 14.29 15.613 19.305 21.25 8.54 9.599 11.903 12.381 10.478 8.668-.334-.87-.607-10.487-.607-21.371v-19.79l-6.344-10.378a5335.732 5335.732 0 0 0-13.153-21.379c-5.561-8.984-27.011-44.442-32.969-54.5-1.327-2.24-1.484 1.256-1.507 33.629m164.442-3.535c-2.72 8.189-1.679 21.722 2.329 30.288 6.916 14.778 18.876 22.105 36.702 22.484 13.504.286 13.504.289-1.668-16.536-5.867-6.506-15.922-18.355-22.343-26.33-6.422-7.975-12.04-14.635-12.485-14.801-.445-.165-1.586 2.038-2.535 4.895M401 329.324v14.325l12 5.606c6.6 3.084 11.995 5.301 11.988 4.926-.029-1.698-22.248-39.146-23.238-39.166-.413-.008-.75 6.431-.75 14.309m269.335-.208c.351 1.311.646 8.909.655 16.884l.018 14.5 5.252 4.056c5.881 4.542 30.835 20.686 31.276 20.235.269-.276-12.293-20.808-27.982-45.732-7.048-11.198-10.572-14.999-9.219-9.943m-326.55 84.4-.285 24.863 5.633 8.06c3.099 4.434 6.586 8.918 7.75 9.966L359 458.31v-45.626l-6.162-10.092c-3.389-5.551-6.748-10.957-7.465-12.015-1.091-1.61-1.35 2.126-1.588 22.939M548 390.145c0 .505 2.138 3.792 4.75 7.306l4.75 6.387 20.68.331c19.036.305 20.904.495 23.5 2.399 1.551 1.137 11.37 14.862 21.82 30.5 22.871 34.224 20.212 32.124 40.148 31.719 15.465-.314 18.352-1.337 18.352-6.508 0-6.463-4.271-8.265-19.607-8.273L652.287 454l-9.518-14.25a3100.638 3100.638 0 0 1-17.964-27.25c-15.092-23.229-16.091-23.674-52.555-23.433-13.939.092-24.25.55-24.25 1.078m-19.056 40.105c-6.287 7.837-18.868 23.25-27.959 34.25-9.09 11-18.966 23.15-21.946 27-2.98 3.85-9.73 12.175-15 18.5-5.27 6.325-11.822 14.425-14.56 17.999-5.627 7.345-27.863 33.551-33.305 39.251l-3.58 3.75 4.953-.059c4.857-.058 5.06-.187 10.453-6.652 7.539-9.037 36.28-44.27 52.441-64.289 7.327-9.075 17.762-21.682 23.19-28.016 5.428-6.334 12.974-15.559 16.769-20.5C529.57 439.543 540.139 427 541.029 427c.394 0 8.53 9.788 18.079 21.75 15.522 19.446 29.414 36.591 46.791 57.75 3.162 3.85 10.891 13.274 17.175 20.942a5592.207 5592.207 0 0 0 23.763 28.75L659.173 571H668.198l-5.349-6.131c-5.902-6.766-17.864-21.253-29.616-35.869-8.169-10.161-13.112-16.128-27.748-33.5-10.126-12.019-24.136-29.326-48.311-59.679-8.621-10.823-15.927-19.711-16.237-19.75-.31-.039-5.707 6.342-11.993 14.179m248.679 17.505c-6.897 4.879-8.634 5.646-13.965 6.159-5.265.507-6.291.949-7.59 3.269-3.302 5.895 4.627 13.365 12.177 11.47 2.225-.558 18.738-25.019 17.625-26.108-.203-.2-3.915 2.145-8.247 5.21m-238.014 9.495c-5.406 28.374-10.045 43.556-18.824 61.616-10.041 20.654-25.195 41.388-35.262 48.244-1.93 1.314-3.512 2.727-3.516 3.14-.004.413 26.558.75 59.026.75h59.034l-5.284-4.641c-24.424-21.457-45.962-64.093-52.842-104.609-1.227-7.225-1.655-8.051-2.332-4.5M237 490.82v6.871l12.75.651c7.012.357 15.563.652 19 .654 7.482.005 10.25 2.012 10.25 7.433 0 6.243-1.046 6.571-20.99 6.571-22.243 0-21.01-.476-21.01 8.107V528h99v-15h-14.566c-8.011 0-15.389-.441-16.395-.979-2.708-1.449-4.112-6.242-2.674-9.126 2.417-4.848 2.616-4.865 60.196-4.88 52.359-.015 54.128-.077 56.172-1.981 3.562-3.318 3.813-5.943.851-8.905l-2.629-2.629-89.977-.276-89.978-.275v6.871m427.235-5.787c-2.884 1.164-4.602 5.412-3.227 7.981 2.497 4.666 4.197 4.983 26.965 5.03 28.969.058 34.027 1.321 34.027 8.494 0 5.375-3.666 6.461-21.885 6.477-9.138.009-17.11.346-17.715.75-4.385 2.928-3.481 8.993 1.825 12.236 3.18 1.944 4.784 1.994 55.275 1.75l52-.251v-14l-21.943-.27C744.811 512.925 744 512.696 744 506c0-6.281 1.713-7 16.675-7 7.16 0 17.156-.294 22.214-.653l9.195-.652-.292-6.598-.292-6.597-62.5-.191c-35.911-.109-63.463.199-64.765.724M350 520.584v7.584l23.583-.334 23.584-.334 2.916-3.266c3.556-3.982 3.642-5.6.462-8.779L398.091 513H350v7.584M237 549v7h140.922l2.039-2.189c2.036-2.185 2.663-6.33 1.274-8.411-2.187-3.275-4.937-3.4-74.669-3.4H237v7m468.5-6.217c-5.621.64-7.463 7.025-3.186 11.043 2.304 2.164 2.523 2.174 46.046 2.174h43.731l-.295-6.696-.296-6.696-41.5-.083c-22.825-.047-42.85.07-44.5.258m-540.959 65.172c-1.47 1.624-1.853 4.47-2.267 16.839l-.497 14.885 2.746 2.161c2.657 2.09 3.606 2.16 29.196 2.16h26.45l-.276 71.959c-.264 68.781-.195 72.05 1.57 74 3.091 3.416 29.585 3.084 33.082-.414l2.455-2.454V644h22.943c28.346 0 26.057 1.689 26.057-19.223 0-13.444-.18-14.957-2-16.777-3.102-3.102-136.653-3.146-139.459-.045m176.959-.591c-2.758 2.033-3.717 178.13-.993 182.287 1.504 2.295 1.887 2.349 16.794 2.349 21.543 0 19.699 2.579 19.699-27.557V740h30.866l3.437 4.25c1.89 2.337 9.38 12.8 16.645 23.25 7.265 10.45 14.541 20.247 16.169 21.77l2.96 2.77 20.711-.27c18.875-.246 20.7-.423 20.578-1.989-.073-.946-4.123-7.137-9-13.758-11.069-15.03-26.211-36.702-30.903-44.231l-3.557-5.708 7.524-7.147c37.734-35.844 22.578-95.823-27.93-110.534-8.496-2.475-79.842-3.368-83-1.039m183.723.193L523 609.113v179.774l2.223 1.556c3.389 2.374 124.831 2.36 127.206-.014 2.509-2.51 2.3-30.459-.246-32.764-1.62-1.466-6.691-1.672-46.75-1.905l-44.933-.26-.273-17.75-.273-17.75H621.855l2.072-2.635c2.663-3.384 3.114-26.451.613-31.288-2.054-3.973-2.711-4.048-35.29-4.063L560 682v-38h89.708l2.55-2.363c3.656-3.388 4.194-28.522.705-32.957l-2.108-2.68H589.15c-54.229 0-61.974.189-63.927 1.557m172.334.666c-2.383 3.401-2.368 179.823.014 182.206 1.283 1.282 4.207 1.571 15.89 1.571 20.458 0 18.986 2.039 19.245-26.661l.206-22.839 11.073-12.25c6.09-6.737 11.398-12.221 11.794-12.185.397.036 5.529 6.223 11.406 13.75 14.495 18.565 41.119 51.824 45.192 56.455l3.315 3.77 21.904-.27c19.588-.241 21.904-.445 21.904-1.922 0-.908-7.2-10.765-16-21.904l-27.926-35.348a11547.997 11547.997 0 0 0-22.5-28.378c-5.815-7.305-10.737-13.757-10.936-14.337-.2-.581 4.976-6.529 11.501-13.218 12.559-12.876 34.705-36.251 53.209-56.163 6.133-6.6 11.151-12.562 11.152-13.25 0-.966-5.574-1.25-24.539-1.25h-24.538l-3.826 3.75c-4.677 4.585-17.01 17.903-27.097 29.262-4.125 4.645-10.915 12.055-15.089 16.467-9.849 10.409-20.038 21.627-25.153 27.692-2.239 2.656-4.338 4.829-4.665 4.829-.326 0-.593-17.812-.593-39.581 0-38.027-.076-39.636-1.941-41-1.469-1.074-5.533-1.419-16.693-1.419-14.111 0-14.82.097-16.309 2.223M377 672.561v28.56l18.75-.31c17.37-.288 19.081-.483 23.25-2.648 17.922-9.309 22.016-29.639 8.956-44.476-7.49-8.508-11.462-9.687-32.652-9.687H377v28.561m13.455 155.894c-2.447 2.446-2.455 2.519-2.455 23 0 22.499.532 24.545 6.378 24.545 4.064 0 4.806-2.159 5.187-15.105.197-6.683.49-12.283.652-12.445.161-.162 6.091 5.971 13.177 13.628 13.901 15.022 16.614 16.605 20.049 11.699 2.058-2.937 2.327-42.416.307-44.985-2.033-2.586-5.237-3.028-7.67-1.058-2.012 1.629-2.228 2.829-2.531 14.081-.182 6.765-.535 12.504-.784 12.754-.25.249-3.336-2.777-6.859-6.724-3.524-3.948-7.451-8.34-8.728-9.761-1.276-1.421-3.488-4.073-4.913-5.893-2.252-2.874-6.945-6.191-8.761-6.191-.327 0-1.699 1.105-3.049 2.455m157.854-.508c-7.457 3.385-10.589 13.628-6.293 20.579 2.276 3.682 5.983 5.667 13.984 7.487 7.453 1.696 9 2.639 9 5.487 0 5.061-6.304 5.822-15.19 1.834l-5.94-2.665-3.126 3.125c-3.818 3.819-2.591 5.918 5.756 9.838 13.8 6.482 29.486-.129 29.496-12.432.008-8.695-4.597-13.262-15.961-15.828-9.364-2.115-11.285-3.9-7.603-7.067 3.348-2.88 4.823-2.853 11.068.208 3.096 1.517 5.139 2.04 5.366 1.372.201-.593 1.668-2.563 3.261-4.377l2.895-3.297-3.261-1.922c-7.992-4.711-16.388-5.549-23.452-2.342m-79.334 1.618c-.536 1.411-.975 11.536-.975 22.5 0 25.818-1.598 23.935 20.311 23.935 17.515 0 20.689-.916 20.689-5.968 0-4.289-2.373-5.032-16.071-5.032H480v-8h8.435c9.513 0 12.93-.945 14.584-4.035 2.281-4.262-.924-5.86-12.394-6.181L480.5 846.5l-.307-4.25-.308-4.25h11.51c12.588 0 16.321-1.02 17.247-4.712 1.39-5.534-1.107-6.288-20.822-6.288h-17.87l-.975 2.565m134.653-.444c-1.116 1.593-1.239 2.771-.495 4.73 1.394 3.666 2.488 4.116 10.034 4.134l6.668.015.332 17.538c.355 18.69.354 18.687 5.623 20.089 5.403 1.439 6.21-1.196 6.21-20.282V838h5.918c9.412 0 13.079-3.304 9.586-8.635-2.309-3.523-41.427-3.741-43.876-.244" fill-rule="evenodd"/></svg>